<?xml version="1.0" encoding="UTF-8" standalone="no"?>
<!DOCTYPE svg PUBLIC "-//W3C//DTD SVG 1.1//EN"
 "http://www.w3.org/Graphics/SVG/1.1/DTD/svg11.dtd">
<!-- Generated by graphviz version 2.43.0 (0)
 -->
<!-- Title: %3 Pages: 1 -->
<svg width="1727pt" height="404pt"
 viewBox="0.00 0.00 1726.88 404.00" xmlns="http://www.w3.org/2000/svg" xmlns:xlink="http://www.w3.org/1999/xlink">
<g id="graph0" class="graph" transform="scale(1 1) rotate(0) translate(4 400)">
<title>%3</title>
<polygon fill="white" stroke="transparent" points="-4,4 -4,-400 1722.88,-400 1722.88,4 -4,4"/>
<!-- [root] aws_eip.elasticIp (expand) -->
<g id="node1" class="node">
<title>[root] aws_eip.elasticIp (expand)</title>
<polygon fill="none" stroke="black" points="472.38,-108 334.38,-108 334.38,-72 472.38,-72 472.38,-108"/>
<text text-anchor="middle" x="403.38" y="-86.3" font-family="Times,serif" font-size="14.00">aws_eip.elasticIp</text>
</g>
<!-- [root] provider[&quot;registry.terraform.io/hashicorp/aws&quot;] -->
<g id="node17" class="node">
<title>[root] provider[&quot;registry.terraform.io/hashicorp/aws&quot;]</title>
<polygon fill="none" stroke="black" points="325.38,-36 0.12,-18 325.38,0 650.65,-18 325.38,-36"/>
<text text-anchor="middle" x="325.38" y="-14.3" font-family="Times,serif" font-size="14.00">provider[&quot;registry.terraform.io/hashicorp/aws&quot;]</text>
</g>
<!-- [root] aws_eip.elasticIp (expand)&#45;&gt;[root] provider[&quot;registry.terraform.io/hashicorp/aws&quot;] -->
<g id="edge1" class="edge">
<title>[root] aws_eip.elasticIp (expand)&#45;&gt;[root] provider[&quot;registry.terraform.io/hashicorp/aws&quot;]</title>
<path fill="none" stroke="black" d="M384.1,-71.7C374.08,-62.7 361.71,-51.6 350.9,-41.9"/>
<polygon fill="black" stroke="black" points="353.15,-39.22 343.37,-35.14 348.48,-44.43 353.15,-39.22"/>
</g>
<!-- [root] aws_internet_gateway.gw (expand) -->
<g id="node2" class="node">
<title>[root] aws_internet_gateway.gw (expand)</title>
<polygon fill="none" stroke="black" points="1718.88,-180 1519.88,-180 1519.88,-144 1718.88,-144 1718.88,-180"/>
<text text-anchor="middle" x="1619.38" y="-158.3" font-family="Times,serif" font-size="14.00">aws_internet_gateway.gw</text>
</g>
<!-- [root] aws_vpc.learing (expand) -->
<g id="node16" class="node">
<title>[root] aws_vpc.learing (expand)</title>
<polygon fill="none" stroke="black" points="1006.88,-108 875.88,-108 875.88,-72 1006.88,-72 1006.88,-108"/>
<text text-anchor="middle" x="941.38" y="-86.3" font-family="Times,serif" font-size="14.00">aws_vpc.learing</text>
</g>
<!-- [root] aws_internet_gateway.gw (expand)&#45;&gt;[root] aws_vpc.learing (expand) -->
<g id="edge2" class="edge">
<title>[root] aws_internet_gateway.gw (expand)&#45;&gt;[root] aws_vpc.learing (expand)</title>
<path fill="none" stroke="black" d="M1519.62,-145.19C1516.51,-144.78 1513.42,-144.38 1510.38,-144 1334.41,-122.1 1126.8,-104.95 1017.5,-96.59"/>
<polygon fill="black" stroke="black" points="1017.47,-93.07 1007.24,-95.8 1016.94,-100.05 1017.47,-93.07"/>
</g>
<!-- [root] aws_nat_gateway.iti (expand) -->
<g id="node3" class="node">
<title>[root] aws_nat_gateway.iti (expand)</title>
<polygon fill="none" stroke="black" points="402.38,-252 244.38,-252 244.38,-216 402.38,-216 402.38,-252"/>
<text text-anchor="middle" x="323.38" y="-230.3" font-family="Times,serif" font-size="14.00">aws_nat_gateway.iti</text>
</g>
<!-- [root] aws_nat_gateway.iti (expand)&#45;&gt;[root] aws_eip.elasticIp (expand) -->
<g id="edge3" class="edge">
<title>[root] aws_nat_gateway.iti (expand)&#45;&gt;[root] aws_eip.elasticIp (expand)</title>
<path fill="none" stroke="black" d="M333.03,-215.87C346.85,-191.35 372.38,-146.03 388.59,-117.26"/>
<polygon fill="black" stroke="black" points="391.84,-118.62 393.7,-108.19 385.74,-115.18 391.84,-118.62"/>
</g>
<!-- [root] aws_subnet.public1 (expand) -->
<g id="node14" class="node">
<title>[root] aws_subnet.public1 (expand)</title>
<polygon fill="none" stroke="black" points="556.88,-180 399.88,-180 399.88,-144 556.88,-144 556.88,-180"/>
<text text-anchor="middle" x="478.38" y="-158.3" font-family="Times,serif" font-size="14.00">aws_subnet.public1</text>
</g>
<!-- [root] aws_nat_gateway.iti (expand)&#45;&gt;[root] aws_subnet.public1 (expand) -->
<g id="edge4" class="edge">
<title>[root] aws_nat_gateway.iti (expand)&#45;&gt;[root] aws_subnet.public1 (expand)</title>
<path fill="none" stroke="black" d="M361.3,-215.88C382.39,-206.35 408.84,-194.41 431.25,-184.28"/>
<polygon fill="black" stroke="black" points="432.91,-187.37 440.59,-180.07 430.03,-180.99 432.91,-187.37"/>
</g>
<!-- [root] aws_route.private (expand) -->
<g id="node4" class="node">
<title>[root] aws_route.private (expand)</title>
<polygon fill="none" stroke="black" points="160.88,-108 15.88,-108 15.88,-72 160.88,-72 160.88,-108"/>
<text text-anchor="middle" x="88.38" y="-86.3" font-family="Times,serif" font-size="14.00">aws_route.private</text>
</g>
<!-- [root] aws_route.private (expand)&#45;&gt;[root] provider[&quot;registry.terraform.io/hashicorp/aws&quot;] -->
<g id="edge5" class="edge">
<title>[root] aws_route.private (expand)&#45;&gt;[root] provider[&quot;registry.terraform.io/hashicorp/aws&quot;]</title>
<path fill="none" stroke="black" d="M146.06,-71.97C182.78,-61.12 230.2,-47.11 267.06,-36.23"/>
<polygon fill="black" stroke="black" points="268.07,-39.58 276.67,-33.39 266.09,-32.86 268.07,-39.58"/>
</g>
<!-- [root] aws_route.public (expand) -->
<g id="node5" class="node">
<title>[root] aws_route.public (expand)</title>
<polygon fill="none" stroke="black" points="315.88,-108 178.88,-108 178.88,-72 315.88,-72 315.88,-108"/>
<text text-anchor="middle" x="247.38" y="-86.3" font-family="Times,serif" font-size="14.00">aws_route.public</text>
</g>
<!-- [root] aws_route.public (expand)&#45;&gt;[root] provider[&quot;registry.terraform.io/hashicorp/aws&quot;] -->
<g id="edge6" class="edge">
<title>[root] aws_route.public (expand)&#45;&gt;[root] provider[&quot;registry.terraform.io/hashicorp/aws&quot;]</title>
<path fill="none" stroke="black" d="M266.66,-71.7C276.68,-62.7 289.06,-51.6 299.86,-41.9"/>
<polygon fill="black" stroke="black" points="302.29,-44.43 307.39,-35.14 297.61,-39.22 302.29,-44.43"/>
</g>
<!-- [root] aws_route_table.private (expand) -->
<g id="node6" class="node">
<title>[root] aws_route_table.private (expand)</title>
<polygon fill="none" stroke="black" points="1319.38,-180 1131.38,-180 1131.38,-144 1319.38,-144 1319.38,-180"/>
<text text-anchor="middle" x="1225.38" y="-158.3" font-family="Times,serif" font-size="14.00">aws_route_table.private</text>
</g>
<!-- [root] aws_route_table.private (expand)&#45;&gt;[root] aws_vpc.learing (expand) -->
<g id="edge7" class="edge">
<title>[root] aws_route_table.private (expand)&#45;&gt;[root] aws_vpc.learing (expand)</title>
<path fill="none" stroke="black" d="M1156.27,-143.97C1114.08,-133.57 1060.1,-120.26 1016.8,-109.59"/>
<polygon fill="black" stroke="black" points="1017.44,-106.14 1006.89,-107.15 1015.76,-112.94 1017.44,-106.14"/>
</g>
<!-- [root] aws_route_table.public (expand) -->
<g id="node7" class="node">
<title>[root] aws_route_table.public (expand)</title>
<polygon fill="none" stroke="black" points="755.38,-180 575.38,-180 575.38,-144 755.38,-144 755.38,-180"/>
<text text-anchor="middle" x="665.38" y="-158.3" font-family="Times,serif" font-size="14.00">aws_route_table.public</text>
</g>
<!-- [root] aws_route_table.public (expand)&#45;&gt;[root] aws_vpc.learing (expand) -->
<g id="edge8" class="edge">
<title>[root] aws_route_table.public (expand)&#45;&gt;[root] aws_vpc.learing (expand)</title>
<path fill="none" stroke="black" d="M732.55,-143.97C772.87,-133.74 824.27,-120.7 865.99,-110.12"/>
<polygon fill="black" stroke="black" points="866.99,-113.48 875.83,-107.63 865.27,-106.69 866.99,-113.48"/>
</g>
<!-- [root] aws_route_table_association.private1 (expand) -->
<g id="node8" class="node">
<title>[root] aws_route_table_association.private1 (expand)</title>
<polygon fill="none" stroke="black" points="1590.88,-252 1307.88,-252 1307.88,-216 1590.88,-216 1590.88,-252"/>
<text text-anchor="middle" x="1449.38" y="-230.3" font-family="Times,serif" font-size="14.00">aws_route_table_association.private1</text>
</g>
<!-- [root] aws_route_table_association.private1 (expand)&#45;&gt;[root] aws_route_table.private (expand) -->
<g id="edge9" class="edge">
<title>[root] aws_route_table_association.private1 (expand)&#45;&gt;[root] aws_route_table.private (expand)</title>
<path fill="none" stroke="black" d="M1394.87,-215.97C1363.17,-206.06 1323.03,-193.51 1289.77,-183.12"/>
<polygon fill="black" stroke="black" points="1290.73,-179.75 1280.14,-180.11 1288.64,-186.43 1290.73,-179.75"/>
</g>
<!-- [root] aws_subnet.private1 (expand) -->
<g id="node12" class="node">
<title>[root] aws_subnet.private1 (expand)</title>
<polygon fill="none" stroke="black" points="1501.38,-180 1337.38,-180 1337.38,-144 1501.38,-144 1501.38,-180"/>
<text text-anchor="middle" x="1419.38" y="-158.3" font-family="Times,serif" font-size="14.00">aws_subnet.private1</text>
</g>
<!-- [root] aws_route_table_association.private1 (expand)&#45;&gt;[root] aws_subnet.private1 (expand) -->
<g id="edge10" class="edge">
<title>[root] aws_route_table_association.private1 (expand)&#45;&gt;[root] aws_subnet.private1 (expand)</title>
<path fill="none" stroke="black" d="M1441.97,-215.7C1438.59,-207.81 1434.51,-198.3 1430.76,-189.55"/>
<polygon fill="black" stroke="black" points="1433.87,-187.92 1426.71,-180.1 1427.43,-190.67 1433.87,-187.92"/>
</g>
<!-- [root] aws_route_table_association.private2 (expand) -->
<g id="node9" class="node">
<title>[root] aws_route_table_association.private2 (expand)</title>
<polygon fill="none" stroke="black" points="1289.88,-252 1006.88,-252 1006.88,-216 1289.88,-216 1289.88,-252"/>
<text text-anchor="middle" x="1148.38" y="-230.3" font-family="Times,serif" font-size="14.00">aws_route_table_association.private2</text>
</g>
<!-- [root] aws_route_table_association.private2 (expand)&#45;&gt;[root] aws_route_table.private (expand) -->
<g id="edge11" class="edge">
<title>[root] aws_route_table_association.private2 (expand)&#45;&gt;[root] aws_route_table.private (expand)</title>
<path fill="none" stroke="black" d="M1167.42,-215.7C1176.93,-207.05 1188.59,-196.45 1198.95,-187.03"/>
<polygon fill="black" stroke="black" points="1201.52,-189.42 1206.57,-180.1 1196.81,-184.24 1201.52,-189.42"/>
</g>
<!-- [root] aws_subnet.private2 (expand) -->
<g id="node13" class="node">
<title>[root] aws_subnet.private2 (expand)</title>
<polygon fill="none" stroke="black" points="1113.38,-180 949.38,-180 949.38,-144 1113.38,-144 1113.38,-180"/>
<text text-anchor="middle" x="1031.38" y="-158.3" font-family="Times,serif" font-size="14.00">aws_subnet.private2</text>
</g>
<!-- [root] aws_route_table_association.private2 (expand)&#45;&gt;[root] aws_subnet.private2 (expand) -->
<g id="edge12" class="edge">
<title>[root] aws_route_table_association.private2 (expand)&#45;&gt;[root] aws_subnet.private2 (expand)</title>
<path fill="none" stroke="black" d="M1119.76,-215.88C1104.46,-206.72 1085.44,-195.34 1068.96,-185.48"/>
<polygon fill="black" stroke="black" points="1070.49,-182.32 1060.11,-180.19 1066.9,-188.33 1070.49,-182.32"/>
</g>
<!-- [root] aws_route_table_association.public1 (expand) -->
<g id="node10" class="node">
<title>[root] aws_route_table_association.public1 (expand)</title>
<polygon fill="none" stroke="black" points="695.88,-252 420.88,-252 420.88,-216 695.88,-216 695.88,-252"/>
<text text-anchor="middle" x="558.38" y="-230.3" font-family="Times,serif" font-size="14.00">aws_route_table_association.public1</text>
</g>
<!-- [root] aws_route_table_association.public1 (expand)&#45;&gt;[root] aws_route_table.public (expand) -->
<g id="edge13" class="edge">
<title>[root] aws_route_table_association.public1 (expand)&#45;&gt;[root] aws_route_table.public (expand)</title>
<path fill="none" stroke="black" d="M584.56,-215.88C598.42,-206.81 615.62,-195.55 630.59,-185.76"/>
<polygon fill="black" stroke="black" points="632.65,-188.59 639.11,-180.19 628.82,-182.74 632.65,-188.59"/>
</g>
<!-- [root] aws_route_table_association.public1 (expand)&#45;&gt;[root] aws_subnet.public1 (expand) -->
<g id="edge14" class="edge">
<title>[root] aws_route_table_association.public1 (expand)&#45;&gt;[root] aws_subnet.public1 (expand)</title>
<path fill="none" stroke="black" d="M538.61,-215.7C528.63,-206.97 516.37,-196.24 505.52,-186.75"/>
<polygon fill="black" stroke="black" points="507.76,-184.06 497.93,-180.1 503.15,-189.32 507.76,-184.06"/>
</g>
<!-- [root] aws_route_table_association.public2 (expand) -->
<g id="node11" class="node">
<title>[root] aws_route_table_association.public2 (expand)</title>
<polygon fill="none" stroke="black" points="988.88,-252 713.88,-252 713.88,-216 988.88,-216 988.88,-252"/>
<text text-anchor="middle" x="851.38" y="-230.3" font-family="Times,serif" font-size="14.00">aws_route_table_association.public2</text>
</g>
<!-- [root] aws_route_table_association.public2 (expand)&#45;&gt;[root] aws_route_table.public (expand) -->
<g id="edge15" class="edge">
<title>[root] aws_route_table_association.public2 (expand)&#45;&gt;[root] aws_route_table.public (expand)</title>
<path fill="none" stroke="black" d="M805.88,-215.88C780,-206.14 747.41,-193.87 720.14,-183.61"/>
<polygon fill="black" stroke="black" points="721.33,-180.31 710.73,-180.07 718.86,-186.87 721.33,-180.31"/>
</g>
<!-- [root] aws_subnet.public2 (expand) -->
<g id="node15" class="node">
<title>[root] aws_subnet.public2 (expand)</title>
<polygon fill="none" stroke="black" points="930.88,-180 773.88,-180 773.88,-144 930.88,-144 930.88,-180"/>
<text text-anchor="middle" x="852.38" y="-158.3" font-family="Times,serif" font-size="14.00">aws_subnet.public2</text>
</g>
<!-- [root] aws_route_table_association.public2 (expand)&#45;&gt;[root] aws_subnet.public2 (expand) -->
<g id="edge16" class="edge">
<title>[root] aws_route_table_association.public2 (expand)&#45;&gt;[root] aws_subnet.public2 (expand)</title>
<path fill="none" stroke="black" d="M851.63,-215.7C851.74,-207.98 851.87,-198.71 851.99,-190.11"/>
<polygon fill="black" stroke="black" points="855.49,-190.15 852.14,-180.1 848.49,-190.05 855.49,-190.15"/>
</g>
<!-- [root] aws_subnet.private1 (expand)&#45;&gt;[root] aws_vpc.learing (expand) -->
<g id="edge17" class="edge">
<title>[root] aws_subnet.private1 (expand)&#45;&gt;[root] aws_vpc.learing (expand)</title>
<path fill="none" stroke="black" d="M1337.07,-145.44C1334.14,-144.94 1331.24,-144.46 1328.38,-144 1220.59,-126.56 1095.29,-110.09 1017.15,-100.27"/>
<polygon fill="black" stroke="black" points="1017.28,-96.76 1006.92,-98.99 1016.41,-103.71 1017.28,-96.76"/>
</g>
<!-- [root] aws_subnet.private2 (expand)&#45;&gt;[root] aws_vpc.learing (expand) -->
<g id="edge18" class="edge">
<title>[root] aws_subnet.private2 (expand)&#45;&gt;[root] aws_vpc.learing (expand)</title>
<path fill="none" stroke="black" d="M1009.13,-143.7C997.8,-134.88 983.85,-124.03 971.56,-114.47"/>
<polygon fill="black" stroke="black" points="973.42,-111.48 963.37,-108.1 969.12,-117.01 973.42,-111.48"/>
</g>
<!-- [root] aws_subnet.public1 (expand)&#45;&gt;[root] aws_vpc.learing (expand) -->
<g id="edge19" class="edge">
<title>[root] aws_subnet.public1 (expand)&#45;&gt;[root] aws_vpc.learing (expand)</title>
<path fill="none" stroke="black" d="M557.03,-145.6C560.19,-145.05 563.31,-144.51 566.38,-144 669.87,-126.7 790.06,-110.37 865.91,-100.53"/>
<polygon fill="black" stroke="black" points="866.39,-104 875.86,-99.24 865.49,-97.06 866.39,-104"/>
</g>
<!-- [root] aws_subnet.public2 (expand)&#45;&gt;[root] aws_vpc.learing (expand) -->
<g id="edge20" class="edge">
<title>[root] aws_subnet.public2 (expand)&#45;&gt;[root] aws_vpc.learing (expand)</title>
<path fill="none" stroke="black" d="M874.38,-143.7C885.59,-134.88 899.38,-124.03 911.54,-114.47"/>
<polygon fill="black" stroke="black" points="913.94,-117.04 919.63,-108.1 909.61,-111.54 913.94,-117.04"/>
</g>
<!-- [root] aws_vpc.learing (expand)&#45;&gt;[root] provider[&quot;registry.terraform.io/hashicorp/aws&quot;] -->
<g id="edge21" class="edge">
<title>[root] aws_vpc.learing (expand)&#45;&gt;[root] provider[&quot;registry.terraform.io/hashicorp/aws&quot;]</title>
<path fill="none" stroke="black" d="M875.75,-81.54C770.94,-69.63 564.56,-46.18 436.46,-31.62"/>
<polygon fill="black" stroke="black" points="436.56,-28.11 426.23,-30.46 435.77,-35.07 436.56,-28.11"/>
</g>
<!-- [root] provider[&quot;registry.terraform.io/hashicorp/aws&quot;] (close) -->
<g id="node18" class="node">
<title>[root] provider[&quot;registry.terraform.io/hashicorp/aws&quot;] (close)</title>
<ellipse fill="none" stroke="black" cx="704.38" cy="-306" rx="291.65" ry="18"/>
<text text-anchor="middle" x="704.38" y="-302.3" font-family="Times,serif" font-size="14.00">[root] provider[&quot;registry.terraform.io/hashicorp/aws&quot;] (close)</text>
</g>
<!-- [root] provider[&quot;registry.terraform.io/hashicorp/aws&quot;] (close)&#45;&gt;[root] aws_internet_gateway.gw (expand) -->
<g id="edge22" class="edge">
<title>[root] provider[&quot;registry.terraform.io/hashicorp/aws&quot;] (close)&#45;&gt;[root] aws_internet_gateway.gw (expand)</title>
<path fill="none" stroke="black" d="M996.09,-305.08C1239.88,-302.33 1554.88,-291.1 1600.38,-252 1617.75,-237.08 1621.54,-210.52 1621.56,-190.29"/>
<polygon fill="black" stroke="black" points="1625.06,-189.99 1621.27,-180.1 1618.06,-190.19 1625.06,-189.99"/>
</g>
<!-- [root] provider[&quot;registry.terraform.io/hashicorp/aws&quot;] (close)&#45;&gt;[root] aws_nat_gateway.iti (expand) -->
<g id="edge23" class="edge">
<title>[root] provider[&quot;registry.terraform.io/hashicorp/aws&quot;] (close)&#45;&gt;[root] aws_nat_gateway.iti (expand)</title>
<path fill="none" stroke="black" d="M613.59,-288.86C558.18,-278.95 485.64,-265.85 412.4,-252.18"/>
<polygon fill="black" stroke="black" points="413,-248.73 402.53,-250.34 411.71,-255.61 413,-248.73"/>
</g>
<!-- [root] provider[&quot;registry.terraform.io/hashicorp/aws&quot;] (close)&#45;&gt;[root] aws_route.private (expand) -->
<g id="edge24" class="edge">
<title>[root] provider[&quot;registry.terraform.io/hashicorp/aws&quot;] (close)&#45;&gt;[root] aws_route.private (expand)</title>
<path fill="none" stroke="black" d="M460.88,-296.04C360.71,-288.8 258.2,-275.7 215.38,-252 159.48,-221.06 119.54,-154.38 100.66,-117.27"/>
<polygon fill="black" stroke="black" points="103.68,-115.49 96.1,-108.08 97.41,-118.59 103.68,-115.49"/>
</g>
<!-- [root] provider[&quot;registry.terraform.io/hashicorp/aws&quot;] (close)&#45;&gt;[root] aws_route.public (expand) -->
<g id="edge25" class="edge">
<title>[root] provider[&quot;registry.terraform.io/hashicorp/aws&quot;] (close)&#45;&gt;[root] aws_route.public (expand)</title>
<path fill="none" stroke="black" d="M490.58,-293.72C375.42,-285.4 253.24,-271.99 235.38,-252 202.44,-215.12 220.6,-152.62 235.07,-117.31"/>
<polygon fill="black" stroke="black" points="238.29,-118.69 239.01,-108.12 231.85,-115.94 238.29,-118.69"/>
</g>
<!-- [root] provider[&quot;registry.terraform.io/hashicorp/aws&quot;] (close)&#45;&gt;[root] aws_route_table_association.private1 (expand) -->
<g id="edge26" class="edge">
<title>[root] provider[&quot;registry.terraform.io/hashicorp/aws&quot;] (close)&#45;&gt;[root] aws_route_table_association.private1 (expand)</title>
<path fill="none" stroke="black" d="M871.19,-291.22C987.84,-281.32 1147.57,-267.27 1297.36,-252.19"/>
<polygon fill="black" stroke="black" points="1298.07,-255.64 1307.67,-251.15 1297.37,-248.67 1298.07,-255.64"/>
</g>
<!-- [root] provider[&quot;registry.terraform.io/hashicorp/aws&quot;] (close)&#45;&gt;[root] aws_route_table_association.private2 (expand) -->
<g id="edge27" class="edge">
<title>[root] provider[&quot;registry.terraform.io/hashicorp/aws&quot;] (close)&#45;&gt;[root] aws_route_table_association.private2 (expand)</title>
<path fill="none" stroke="black" d="M805.41,-289.07C872.24,-278.54 960.13,-264.68 1030.2,-253.63"/>
<polygon fill="black" stroke="black" points="1031.07,-257.04 1040.4,-252.02 1029.98,-250.12 1031.07,-257.04"/>
</g>
<!-- [root] provider[&quot;registry.terraform.io/hashicorp/aws&quot;] (close)&#45;&gt;[root] aws_route_table_association.public1 (expand) -->
<g id="edge28" class="edge">
<title>[root] provider[&quot;registry.terraform.io/hashicorp/aws&quot;] (close)&#45;&gt;[root] aws_route_table_association.public1 (expand)</title>
<path fill="none" stroke="black" d="M669.04,-288.05C649.19,-278.54 624.23,-266.57 603.04,-256.41"/>
<polygon fill="black" stroke="black" points="604.44,-253.2 593.9,-252.03 601.41,-259.51 604.44,-253.2"/>
</g>
<!-- [root] provider[&quot;registry.terraform.io/hashicorp/aws&quot;] (close)&#45;&gt;[root] aws_route_table_association.public2 (expand) -->
<g id="edge29" class="edge">
<title>[root] provider[&quot;registry.terraform.io/hashicorp/aws&quot;] (close)&#45;&gt;[root] aws_route_table_association.public2 (expand)</title>
<path fill="none" stroke="black" d="M739.97,-288.05C759.95,-278.54 785.09,-266.57 806.42,-256.41"/>
<polygon fill="black" stroke="black" points="808.09,-259.49 815.62,-252.03 805.08,-253.17 808.09,-259.49"/>
</g>
<!-- [root] root -->
<g id="node19" class="node">
<title>[root] root</title>
<ellipse fill="none" stroke="black" cx="704.38" cy="-378" rx="58.49" ry="18"/>
<text text-anchor="middle" x="704.38" y="-374.3" font-family="Times,serif" font-size="14.00">[root] root</text>
</g>
<!-- [root] root&#45;&gt;[root] provider[&quot;registry.terraform.io/hashicorp/aws&quot;] (close) -->
<g id="edge30" class="edge">
<title>[root] root&#45;&gt;[root] provider[&quot;registry.terraform.io/hashicorp/aws&quot;] (close)</title>
<path fill="none" stroke="black" d="M704.38,-359.7C704.38,-351.98 704.38,-342.71 704.38,-334.11"/>
<polygon fill="black" stroke="black" points="707.88,-334.1 704.38,-324.1 700.88,-334.1 707.88,-334.1"/>
</g>
</g>
</svg>
